<svg width="20" height="21" viewBox="0 0 20 21" fill="none" xmlns="http://www.w3.org/2000/svg">
<path d="M14 7V3.50066C14 2.66892 14 2.25305 13.8248 1.99748C13.6717 1.77419 13.4346 1.6225 13.1678 1.57708C12.8623 1.5251 12.4847 1.69938 11.7295 2.04792L2.85901 6.142C2.18551 6.45285 1.84875 6.60827 1.60211 6.84932C1.38406 7.06242 1.21762 7.32255 1.1155 7.60983C1 7.93479 1 8.30568 1 9.04747V14M14.5 13.5H14.51M1 10.2L1 16.8C1 17.9201 1 18.4802 1.21799 18.908C1.40973 19.2843 1.71569 19.5903 2.09202 19.782C2.51984 20 3.07989 20 4.2 20H15.8C16.9201 20 17.4802 20 17.908 19.782C18.2843 19.5903 18.5903 19.2843 18.782 18.908C19 18.4802 19 17.9201 19 16.8V10.2C19 9.0799 19 8.51985 18.782 8.09202C18.5903 7.7157 18.2843 7.40974 17.908 7.21799C17.4802 7 16.9201 7 15.8 7L4.2 7C3.0799 7 2.51984 7 2.09202 7.21799C1.7157 7.40974 1.40973 7.7157 1.21799 8.09202C1 8.51985 1 9.0799 1 10.2ZM15 13.5C15 13.7761 14.7761 14 14.5 14C14.2239 14 14 13.7761 14 13.5C14 13.2239 14.2239 13 14.5 13C14.7761 13 15 13.2239 15 13.5Z" stroke="white" stroke-width="2" stroke-linecap="round" stroke-linejoin="round"/>
</svg>
